<svg xmlns="http://www.w3.org/2000/svg" xmlns:xlink="http://www.w3.org/1999/xlink" version="1.1" x="0px" y="0px" viewBox="0 0 100 100" style="enable-background:new 0 0 100 100;" xml:space="preserve"><path d="M90.3066406,72.8283691l-3.5-3.9863281c-0.7597656-0.8671875-2.2480469-0.8662109-3.0078125-0.0009766l-3.4980469,3.9863281  c-0.3212891,0.3642578-0.4980469,0.8330078-0.4980469,1.3203125v1.2128906h-3.1210938v-1.2128906  c0-0.4873047-0.1767578-0.9560547-0.4960938-1.3193359l-3.5-3.9863281  c-0.7597656-0.8671875-2.2480469-0.8662109-3.0078125-0.0009766l-2.5415039,2.8962402l-0.1859131-16.1269531  c8.8675537-1.3466187,15.6541748-8.3494263,15.6541748-16.7834473c0-3.0522461-0.9082031-6.0410156-2.6308594-8.6757813  c0.3984375-1.3144531,0.6005859-2.6738281,0.6005859-4.046875c0-3.6738281-1.4541016-7.1884766-4.109375-9.9609375  c0.2421875-0.9116211,0.3642578-1.8378906,0.3642578-2.7626953c0-6.5161133-5.8193359-11.8173828-12.9726563-11.8173828  S50.8828125,6.864502,50.8828125,13.3806152c0,0.9248047,0.1220703,1.8510742,0.3642578,2.7626953  c-0.949585,0.9916992-1.7384033,2.0814209-2.3692627,3.2363281c-1.552063-5.1723633-6.7433472-8.9902344-12.9085693-8.9902344  c-7.3857422,0-13.394043,5.4716797-13.394043,12.1977539c0,0.9609375,0.1279297,1.9238281,0.3803711,2.8696289  c-2.75,2.8657227-4.2573242,6.5009766-4.2573242,10.3012695c0,1.4233398,0.2099609,2.8320313,0.625,4.1948242  c-1.7851563,2.7241211-2.7260742,5.8168945-2.7260742,8.9750977c0,8.7220459,7.027771,15.9628906,16.2046509,17.3431396  L32.7404175,71.59729l-2.4191284-2.755249c-0.3793945-0.4335938-0.9272461-0.6816406-1.5029297-0.6816406  c-0.0004883,0-0.0004883,0-0.0009766,0c-0.5756836,0-1.1230469,0.2490234-1.5024414,0.6816406l-3.4980469,3.9853516  c-0.3212891,0.3642578-0.4985352,0.8330078-0.4985352,1.3203125v1.2128906h-3.1210938v-1.2128906  c0-0.4873047-0.1772461-0.9560547-0.4970703-1.3193359l-3.5-3.9863281  c-0.3793945-0.4335938-0.9272461-0.6816406-1.5029297-0.6816406c-0.0004883,0-0.0004883,0-0.0009766,0  c-0.5756836,0-1.1230469,0.2490234-1.5024414,0.6816406l-3.4980469,3.9853516  c-0.3212891,0.3642578-0.4985352,0.8330078-0.4985352,1.3203125v22.2890625c0,1.1025391,0.8969727,2,2,2h7  c1.1030273,0,2-0.8974609,2-2v-2.5371094h3.1210938v2.5371094c0,1.1025391,0.8969727,2,2,2h7c1.1030273,0,2-0.8974609,2-2  v-2.5371094h3.1210938v2.5371094c0,1.1025391,0.8969727,2,2,2h7c1.1030273,0,2-0.8974609,2-2v-2.5371094h3.1210938v2.5371094  c0,1.1025391,0.8974609,2,2,2h7c1.1025391,0,2-0.8974609,2-2v-2.5371094h3.1210938v2.5371094c0,1.1025391,0.8974609,2,2,2h7  c1.1025391,0,2-0.8974609,2-2v-2.5371094h3.1210938v2.5371094c0,1.1025391,0.8974609,2,2,2h7c1.1025391,0,2-0.8974609,2-2  V74.1477051C90.8027344,73.6604004,90.6259766,73.1916504,90.3066406,72.8283691z M18.1972656,96.4367676h-7V74.1486816  l3.5-3.9873047l3.5,3.9863281V96.4367676z M23.3183594,91.8996582h-3.1210938v-2.5390625h3.1210938V91.8996582z   M23.3183594,87.3605957h-3.1210938v-5.4609375h3.1210938V87.3605957z M23.3183594,79.8996582h-3.1210938v-2.5390625h3.1210938  V79.8996582z M32.3183594,96.4367676h-7V74.1486816l3.5-3.9873047l3.5,3.9863281V96.4367676z M32.9349365,54.7168579  l-5.7713623-6.2439575c-0.0595703-0.0644531-0.0576172-0.1635742,0.0043945-0.2255859l0.9243164-0.9238281  c0.0610352-0.0615234,0.1591797-0.0634766,0.2236328-0.0039063l4.6546631,4.3029785L32.9349365,54.7168579z M33.1087646,39.6358032  l-3.7425537-4.1126099c-0.0581055-0.0639648-0.0556641-0.1621094,0.0053711-0.2231445l0.6118164-0.6118164  c0.0317383-0.03125,0.0727539-0.0473633,0.1142578-0.0473633c0.0390625,0,0.078125,0.0141602,0.109375,0.0424805  l2.9280396,2.6646118L33.1087646,39.6358032z M37.4394531,91.8996582h-3.1210938v-2.5390625h3.1210938V91.8996582z   M34.559021,87.3605957l0.0629272-5.4609375h2.6950684l0.0629272,5.4609375H34.559021z M37.4394531,79.8996582h-3.1210938  v-2.5390625h3.1210938V79.8996582z M34.6973267,75.3605957l0.5497437-47.7060547  c0.0043945-0.3930664,0.3286133-0.7133789,0.7226563-0.7133789c0.3935547,0,0.7177734,0.3203125,0.722168,0.7138672  l0.5497437,47.7055664H34.6973267z M38.803833,37.3478394l2.9276123-2.6644897  c0.03125-0.0283203,0.0703125-0.0424805,0.109375-0.0424805c0.0415039,0,0.0830078,0.0161133,0.1147461,0.0473633  l0.6113281,0.6113281c0.0615234,0.0615234,0.0634766,0.1601563,0.0053711,0.2241211l-3.7420654,4.1121216L38.803833,37.3478394z   M38.9683838,51.6220093l4.6546631-4.3029175c0.0307617-0.0288086,0.0703125-0.0429688,0.109375-0.0429688  c0.0415039,0,0.0830078,0.0161133,0.1147461,0.0478516l0.9238281,0.9238281  c0.0615234,0.0620117,0.0634766,0.1606445,0.0043945,0.2246094l-5.7713623,6.2436523L38.9683838,51.6220093z M39.0375366,57.6261597  l7.2070923-7.796814c0.7905273-0.855957,0.7641602-2.171875-0.0595703-2.9956055l-0.9238281-0.9238281  c-0.8256836-0.8256836-2.1416016-0.8500977-2.9960938-0.059082l-3.3278198,3.076355l-0.0732422-6.3568726l5.1876831-5.7009277  c0.777832-0.8549805,0.7470703-2.1655273-0.0698242-2.9829102c0-0.0004883-0.0004883-0.0004883-0.0004883-0.0004883  l-0.6123047-0.6123047c-0.8173828-0.8168945-2.1289063-0.847168-2.9833984-0.0698242l-1.6127319,1.4677734l-0.0811157-7.0400391  c-0.0175781-1.4833984-1.2387695-2.6904297-2.722168-2.6904297H35.96875c-1.4838867,0-2.7045898,1.2070313-2.7216797,2.6904297  l-0.0811157,7.0403442l-1.6132202-1.4680786c-0.8549805-0.7783203-2.1660156-0.7470703-2.9833984,0.0703125l-0.6118164,0.6118164  c-0.8178711,0.8178711-0.8486328,2.128418-0.0703125,2.9833984l5.1876831,5.7009277l-0.0732422,6.3572998l-3.3278198-3.0762939  c-0.8564453-0.7919922-2.1723633-0.7666016-2.9960938,0.0581055L25.753418,46.833252  c0,0.0004883-0.0004883,0.0004883-0.0004883,0.0009766c-0.8232422,0.8237305-0.8491211,2.1396484-0.0585938,2.9956055  l7.2070923,7.796875l-0.076416,6.6318359c-8.0811768-1.3339844-14.2278442-7.6942139-14.2278442-15.3305664  c0-2.9091797,0.9155273-5.7612305,2.6474609-8.2470703c0.1826172-0.2617188,0.2290039-0.5942383,0.1254883-0.8959961  c-0.4458008-1.3017578-0.671875-2.6567383-0.671875-4.0268555c0-3.4482422,1.4487305-6.75,4.0800781-9.2978516  c0.2744141-0.265625,0.3735352-0.6645508,0.2553711-1.0273438c-0.3041992-0.9350586-0.4584961-1.8925781-0.4584961-2.8457031  c0-5.6230469,5.1113281-10.1977539,11.394043-10.1977539s11.394043,4.574707,11.394043,10.1977539  c0,0.9516602-0.1542969,1.9091797-0.4584961,2.8457031c-0.1176758,0.3632813-0.0185547,0.7617188,0.2553711,1.0273438  c2.6313477,2.5483398,4.0800781,5.8500977,4.0800781,9.2978516c0,1.3696289-0.2255859,2.7246094-0.671875,4.0273438  c-0.1030273,0.3012695-0.0561523,0.6337891,0.1259766,0.8950195c1.7314453,2.487793,2.6474609,5.3398438,2.6474609,8.2475586  c0,7.6361694-6.1468506,13.9963379-14.2278442,15.3305054L39.0375366,57.6261597z M46.4394531,96.4367676h-7V74.1486816  l3.5-3.9873047l3.5,3.9863281V96.4367676z M51.5605469,91.8996582h-3.1210938v-2.5390625h3.1210938V91.8996582z   M51.5605469,87.3605957h-3.1210938v-5.4609375h3.1210938V87.3605957z M51.5605469,79.8996582h-3.1210938v-2.5390625h3.1210938  V79.8996582z M60.5605469,96.4367676h-7V74.1486816l3.5-3.9873047l3.5,3.9863281V96.4367676z M60.5825195,71.140564  l-2.0180664-2.2985229c-0.7597656-0.8671875-2.2480469-0.8662109-3.0078125-0.0009766l-3.4980469,3.9863281  c-0.3212891,0.3642578-0.4980469,0.8330078-0.4980469,1.3203125v1.2128906h-3.1210938v-1.2128906  c0-0.4873047-0.1772461-0.9560547-0.4970703-1.3193359l-3.5-3.9863281  c-0.3793945-0.4335938-0.9272461-0.6816406-1.5029297-0.6816406c-0.0004883,0-0.0004883,0-0.0009766,0  c-0.5756836,0-1.1230469,0.2490234-1.5024414,0.6816406l-2.2398071,2.5518799l-0.059082-5.1228638  c7.4606323-1.1221924,13.4840698-6.1178589,15.4806519-12.6386108c1.8718262,0.9682007,3.9431152,1.6434937,6.1437988,1.9777832  L60.5825195,71.140564z M60.8916626,44.3323975l-5.5176392-5.9693604c-0.0449219-0.0483398-0.0429688-0.1230469,0.0029297-0.1699219  l0.8925781-0.8916016c0.0439453-0.0463867,0.1201172-0.050293,0.1699219-0.003418l4.4851074,4.1801147L60.8916626,44.3323975z   M61.0596313,29.7643433l-3.5576782-3.9091187c-0.0439453-0.0483398-0.0419922-0.1230469,0.0048828-0.1694336l0.5908203-0.5908203  c0.0244141-0.0239258,0.0556641-0.0356445,0.0869141-0.0356445c0.0292969,0,0.0585938,0.0102539,0.0820313,0.0317383  l2.8173828,2.5636597L61.0596313,29.7643433z M62.5495605,74.0258789l0.6428223-55.7487793  c0.0039063-0.3618164,0.3017578-0.65625,0.6640625-0.65625c0.3613281,0,0.6591797,0.2939453,0.6630859,0.65625l0.6582642,57.0834961  h-2.6172485v-1.2128906C62.5605469,74.1065674,62.552063,74.0667114,62.5495605,74.0258789z M65.6816406,91.8996582h-3.1210938  v-2.5390625h3.1210938V91.8996582z M65.6816406,87.3605957h-3.1210938v-5.4609375h3.1210938V87.3605957z M65.6816406,79.8996582  h-3.1210938v-2.5390625h3.1210938V79.8996582z M66.6279297,27.6547852l2.8173828-2.5637207  c0.0234375-0.0214844,0.0537109-0.0322266,0.0830078-0.0322266c0.03125,0,0.0625,0.012207,0.0869141,0.0361328l0.5908203,0.5908203  c0.0458984,0.0463867,0.0478516,0.1206055,0.0039063,0.1694336l-3.5576782,3.9091797L66.6279297,27.6547852z M66.7869263,41.444519  l4.4855347-4.1469116c0.0234375-0.0214844,0.0537109-0.0322266,0.0830078-0.0322266c0.03125,0,0.0625,0.0117188,0.0869141,0.0356445  l0.8925781,0.8920898c0.0458984,0.046875,0.0478516,0.121582,0.0029297,0.1704102l-5.5176392,5.9699707L66.7869263,41.444519z   M66.8538208,47.2435303l6.9528198-7.5220947c0.7763672-0.8398438,0.7519531-2.1318359-0.0576172-2.9414063  c0-0.0004883,0-0.0004883,0-0.0004883l-0.8925781-0.8930664c-0.8115234-0.8085938-2.1015625-0.8330078-2.9414063-0.0571289  l-3.1591797,2.9204102l-0.0697632-6.0517578l5.0023804-5.4970703c0.7646484-0.8398438,0.734375-2.1264648-0.0683594-2.9291992  l-0.5908203-0.5908203c-0.8027344-0.8041992-2.0908203-0.8320313-2.9296875-0.0693359l-1.5025635,1.3672485l-0.0775146-6.7241821  c-0.015625-1.4521484-1.2099609-2.6337891-2.6630859-2.6337891h-0.0009766c-1.4511719,0-2.6455078,1.1811523-2.6630859,2.6328125  l-0.0775757,6.7251587l-1.5025024-1.3672485c-0.8398438-0.7646484-2.1269531-0.7329102-2.9287109,0.0693359l-0.5908203,0.5908203  c-0.8027344,0.8027344-0.8339844,2.0893555-0.0693359,2.9291992l5.0023804,5.4970703l-0.0697632,6.0516357L57.796875,35.829834  c-0.8398438-0.7773438-2.1328125-0.7519531-2.9414063,0.0571289l-0.8925781,0.8925781c0,0,0,0,0,0.0004883  c-0.8095703,0.8095703-0.8339844,2.1015625-0.0576172,2.940918l6.9528198,7.5217285l-0.0732422,6.3550415  c-2.0556641-0.3439331-3.973877-1.02948-5.6932373-1.9827881c0.1491699-0.878479,0.2501831-1.7711792,0.2501831-2.6869507  c0-3.1572266-0.9404297-6.2495117-2.7255859-8.9750977c0.4140625-1.3632813,0.6240234-2.7719727,0.6240234-4.1948242  c0-3.7128296-1.4474487-7.263855-4.0792236-10.0980835c0.1191406-3.1595459,1.4863892-6.1687622,3.9073486-8.5132446  c0.2744141-0.265625,0.3740234-0.6640625,0.2558594-1.0273438c-0.2929688-0.9013672-0.4414063-1.8227539-0.4414063-2.7387695  c0-5.4130859,4.9228516-9.8173828,10.9736328-9.8173828s10.9726563,4.4042969,10.9726563,9.8173828  c0,0.9160156-0.1484375,1.8374023-0.4414063,2.7387695c-0.1181641,0.3632813-0.0185547,0.7617188,0.2558594,1.0273438  c2.5341797,2.4545898,3.9306641,5.6357422,3.9306641,8.9575195c0,1.3203125-0.2177734,2.6254883-0.6474609,3.8789063  c-0.1025391,0.3017578-0.0566406,0.6342773,0.1259766,0.8959961c1.6689453,2.3964844,2.5517578,5.1450195,2.5517578,7.9477539  c0,7.3479614-5.9055786,13.4711304-13.6774292,14.7709351L66.8538208,47.2435303z M74.6816406,96.4367676h-7V74.1486816  l3.5-3.9873047l3.5,3.9863281V96.4367676z M79.8027344,91.8996582h-3.1210938v-2.5390625h3.1210938V91.8996582z   M79.8027344,87.3605957h-3.1210938v-5.4609375h3.1210938V87.3605957z M79.8027344,79.8996582h-3.1210938v-2.5390625h3.1210938  V79.8996582z M88.8027344,96.4367676h-7V74.1486816l3.5-3.9873047l3.5,3.9863281V96.4367676z"/></svg>