<svg xmlns="http://www.w3.org/2000/svg" xmlns:xlink="http://www.w3.org/1999/xlink" version="1.1" x="0px" y="0px" viewBox="0 0 100 100" style="enable-background:new 0 0 100 100;" xml:space="preserve"><path d="M96.8,1.6H3.2c-0.8,0-1.6,0.7-1.6,1.6c0,9.8,0,83.7,0,93.6c0,0.8,0.7,1.6,1.6,1.6h93.6c0.9,0,1.6-0.7,1.6-1.6  c0-2.4,0-91.1,0-93.6C98.4,2.3,97.7,1.6,96.8,1.6z M81.2,38.2l7-5.4v39h-7V38.2z M91.3,29.6c0-0.6-0.3-1.1-0.9-1.4  c-0.6-0.3-1.2-0.2-1.6,0.2l-10.1,7.8c-0.4,0.3-0.6,0.8-0.6,1.2v36v2.5L75,72.8c0-4.8,0-39.8,0-45.5L95.2,7c0,8.5,0,77.1,0,86.1  l-3.9-3.9C91.3,82.9,91.3,37.1,91.3,29.6z M60.9,64.8H39.1V39.1h21.8V64.8z M64,37.5c0-0.9-0.7-1.6-1.6-1.6h-25  c-0.9,0-1.6,0.7-1.6,1.6v28.9v5.5h-7.8V28.2h43.7c0,5.2,0,38.9,0,43.7H64C64,59.3,64,49.9,64,37.5z M13.3,34v31.1l-8.6,5.5V27.4  L13.3,34z M4.8,74.3l11-7c0.5-0.3,0.7-0.8,0.7-1.3V33.2c0-0.5-0.2-0.9-0.6-1.2L4.8,23.5V7L25,27.2v45.5L4.8,93V74.3z M93,4.8  L72.8,25H27.2L7,4.8H93z M7,95.2L27.2,75h10.3c0.9,0,1.6-0.7,1.6-1.6v-5.5h21.8v5.5c0,0.9,0.7,1.6,1.6,1.6h10.3l5.8,5.8  c0.4,0.4,1.1,0.6,1.7,0.3c0.6-0.2,1-0.8,1-1.4V75h7v14.8c0,0.4,0.2,0.8,0.5,1.1l4.4,4.4H7z"/></svg>